#!OML:ASF I:\Actors\actors\Patient Classification 1\Patient 1\Session 1\Subject1.ASF
:FULLY-SPECIFIED
:DEGREES
618
root -0.411167 17.6635 8.23009 5.73052 4.50317 -3.28468
lowerback 2.25104 2.48562 1.32529
upperback -9.47958 3.70406 2.05591
thorax -11.4633 1.8077 1.02297
lowerneck -5.47417 4.42038 3.57449
upperneck 19.2048 4.45447 6.81357
head 6.69005 2.98916 1.92369
rclavicle -4.23411e-014 -2.26615e-014
rhumerus -46.5043 47.5665 -106.434
rradius 98.7009
rwrist -21.7066
rhand -0.766564 -50.2017
rfingers 7.12502
rthumb 24.8559 -78.6059
lclavicle -4.23411e-014 -2.26615e-014
lhumerus -42.9348 -39.0018 98.6659
lradius 86.1212
lwrist 41.2322
lhand -27.2739 1.24684
lfingers 7.12502
lthumb -0.684582 31.2255
rfemur 1.90126 19.6186 22.8396
rtibia 4.12775
rfoot -14.6055 -26.4814
rtoes 6.50859
lfemur 7.93033 -34.0552 -18.7495
ltibia -3.33015
lfoot -11.1183 31.0408
ltoes -14.6159
619
root -0.364669 17.6497 8.19583 5.8334 3.54395 -3.1449
lowerback 2.20195 2.39136 1.70616
upperback -9.30984 3.56583 1.76551
thorax -11.1892 1.68937 0.521763
lowerneck -6.11996 4.90335 4.1797
upperneck 19.7481 4.94834 6.91395
head 6.99221 3.30138 1.93016
rclavicle 7.7526e-015 2.8625e-014
rhumerus -46.9813 48.0286 -107.651
rradius 98.9161
rwrist -21.9304
rhand 0.285621 -50.4853
rfingers 7.12502
rthumb 25.8639 -78.7465
lclavicle 7.7526e-015 2.8625e-014
lhumerus -43.4232 -40.8982 99.1273
lradius 86.864
lwrist 42.1737
lhand -27.0418 2.17845
lfingers 7.12502
lthumb -0.460434 32.1577
rfemur 1.66823 20.0646 22.273
rtibia 3.98873
rfoot -14.5612 -25.8657
rtoes 5.7326
lfemur 8.65185 -34.936 -19.6642
ltibia -3.85932
lfoot -12.0295 32.7635
ltoes -12.7637
620
root -0.303093 17.6428 8.15408 5.8757 3.03926 -3.10433
lowerback 2.86696 2.3558 2.40701
upperback -9.52543 3.58179 1.48722
thorax -11.7826 1.60584 -0.201169
lowerneck -6.63896 5.15401 4.69883
upperneck 20.5257 5.13566 6.95469
head 7.35657 3.46402 1.91579
rclavicle -8.00108e-015 1.98785e-016
rhumerus -48.0066 47.837 -108.724
rradius 99.1019
rwrist -21.8411
rhand 1.96033 -50.9379
rfingers 7.12502
rthumb 27.4666 -78.9551
lclavicle -8.00108e-015 1.98785e-016
lhumerus -45.009 -42.8984 100.8
lradius 87.536
lwrist 43.0454
lhand -26.9857 2.66946
lfingers 7.12502
lthumb -0.406274 32.6488
rfemur 1.40777 19.9119 21.6836
rtibia 3.88729
rfoot -14.4776 -24.9408
rtoes 5.00777
lfemur 8.93749 -35.7367 -20.3406
ltibia -3.93105
lfoot -12.5899 34.0093
ltoes -11.9193
621
root -0.241246 17.6373 8.10578 5.96997 2.45202 -2.97983
lowerback 3.25929 2.26132 2.83802
upperback -9.58069 3.503 1.41376
thorax -12.0607 1.51554 -0.527543
lowerneck -6.95648 5.50164 5.01365
upperneck 21.0016 5.5542 6.78129
head 7.58356 3.69026 1.87024
rclavicle -6.55989e-015 1.21259e-014
rhumerus -48.7787 48.1115 -109.458
rradius 99.2662
rwrist -21.948
rhand 2.92302 -51.4164
rfingers 7.12502
rthumb 28.387 -79.2839
lclavicle -6.55989e-015 1.21259e-014
lhumerus -46.2853 -44.2837 102.416
lradius 88.1351
lwrist 43.9861
lhand -27.0455 3.22868
lfingers 7.12502
lthumb -0.464059 33.2079
rfemur 0.918 19.5356 20.8777
rtibia 3.91856
rfoot -14.2697 -23.7472
rtoes 4.04245
lfemur 8.93269 -36.444 -21.0117
ltibia -3.74042
lfoot -13.2193 35.2397
ltoes -10.9836
622
root -0.175892 17.632 8.04462 6.0948 1.64584 -2.55604
lowerback 3.6875 2.23881 2.95972
upperback -9.57607 3.48795 1.28264
thorax -12.3046 1.48148 -0.753702
lowerneck -7.21551 5.87342 5.3052
upperneck 21.3044 6.03415 6.55052
head 7.74594 3.93129 1.80973
rclavicle -1.83876e-015 -1.78906e-015
rhumerus -49.407 48.3647 -109.991
rradius 99.49
rwrist -22.2446
rhand 3.59382 -51.7431
rfingers 7.12502
rthumb 29.0278 -79.5021
lclavicle -1.83876e-015 -1.78906e-015
lhumerus -47.4662 -45.3498 103.943
lradius 88.7988
lwrist 44.8523
lhand -27.2753 4.10497
lfingers 7.12502
lthumb -0.686003 34.0836
rfemur 0.184961 19.0107 19.5891
rtibia 4.06104
rfoot -13.9557 -22.3857
rtoes 2.95424
lfemur 8.63888 -36.9739 -21.9381
ltibia -3.29766
lfoot -13.8646 36.4763
ltoes -9.60974
623
root -0.141459 17.6403 8.02686 6.1656 1.52852 -2.83294
lowerback 3.37121 2.04313 3.42222
upperback -9.50402 3.25529 1.36566
thorax -12.015 1.33675 -0.8736
lowerneck -7.22223 6.18237 5.77683
upperneck 21.4945 6.42447 6.3269
head 7.83746 4.13803 1.70393
rclavicle 1.91827e-014 -8.54774e-015
rhumerus -50.0127 48.3112 -110.537
rradius 99.6773
rwrist -22.6701
rhand 4.49482 -51.9568
rfingers 7.12502
rthumb 29.888 -79.5643
lclavicle 1.91827e-014 -8.54774e-015
lhumerus -48.9619 -46.2898 105.606
lradius 89.5142
lwrist 45.7058
lhand -27.5796 4.91063
lfingers 7.12502
lthumb -0.979914 34.8881
rfemur 0.292396 18.998 19.7203
rtibia 3.58735
rfoot -13.9187 -22.2048
rtoes 2.71767
lfemur 8.31685 -36.5541 -21.6223
ltibia -3.18231
lfoot -13.3554 36.34
ltoes -9.99389
624
root -0.104902 17.6403 7.99504 6.23529 1.19997 -2.91854
lowerback 3.26267 1.89517 3.74136
upperback -9.525 3.0788 1.37514
thorax -11.9656 1.22237 -1.0129
lowerneck -6.92348 6.4579 6.12655
upperneck 21.6251 6.79055 6.23854
head 7.84632 4.33203 1.64594
rclavicle -1.84373e-014 3.97569e-015
rhumerus -50.8107 48.2204 -111.277
rradius 99.8125
rwrist -23.0719
rhand 5.3371 -52.1284
rfingers 7.12502
rthumb 30.6915 -79.5882
lclavicle -1.84373e-014 3.97569e-015
lhumerus -50.7089 -46.8954 107.421
lradius 90.1641
lwrist 46.5406
lhand -27.668 5.44413
lfingers 7.12502
lthumb -1.06524 35.4212
rfemur 0.157172 19.048 19.5643
rtibia 3.36149
rfoot -13.8108 -21.9819
rtoes 2.21247
lfemur 7.8805 -36.2466 -21.5836
ltibia -2.8225
lfoot -12.912 36.4442
ltoes -10.0728
625
root -0.0680834 17.6346 7.95791 6.23295 0.788462 -2.94245
lowerback 3.3066 1.7387 3.99235
upperback -9.50492 2.89159 1.39374
thorax -11.9687 1.10846 -1.10877
lowerneck -6.69107 6.75111 6.34028
upperneck 21.7815 7.18417 6.20757
head 7.86844 4.53506 1.63384
rclavicle -2.43511e-015 -8.74653e-015
rhumerus -51.5502 48.2624 -111.975
rradius 99.8839
rwrist -23.3612
rhand 5.88422 -52.2942
rfingers 7.12502
rthumb 31.213 -79.6549
lclavicle -2.43511e-015 -8.74653e-015
lhumerus -52.2814 -47.2131 109.093
lradius 90.7046
lwrist 47.2393
lhand -27.6124 5.81202
lfingers 7.12502
lthumb -1.01152 35.7894
rfemur 0.0327921 19.148 19.3558
rtibia 3.20678
rfoot -13.5973 -21.7764
rtoes 1.30789
lfemur 7.61956 -36.1806 -21.7761
ltibia -2.48201
lfoot -12.6506 36.9081
ltoes -9.52356
626
root -0.0323999 17.6262 7.92053 6.1643 0.399467 -3.07377
lowerback 3.40724 1.55988 4.32526
upperback -9.43001 2.68842 1.46533
thorax -11.946 0.983368 -1.19196
lowerneck -6.46809 7.06373 6.72585
upperneck 21.9448 7.619 5.98334
head 7.9127 4.75344 1.5367
rclavicle -5.86415e-015 2.98177e-014
rhumerus -52.107 48.4372 -112.55
rradius 99.9062
rwrist -23.6658
rhand 6.27864 -52.6748
rfingers 7.12502
rthumb 31.5888 -79.9624
lclavicle -5.86415e-015 2.98177e-014
lhumerus -53.7165 -47.3306 110.618
lradius 91.235
lwrist 47.6936
lhand -27.5942 6.10571
lfingers 7.12502
lthumb -0.993974 36.0831
rfemur -0.0146091 19.2237 19.2938
rtibia 3.04291
rfoot -13.4361 -21.4865
rtoes 0.836251
lfemur 7.5398 -36.1599 -21.8986
ltibia -2.28659
lfoot -12.5178 37.3654
ltoes -8.74509
627
root 0.00506795 17.6152 7.88249 6.06823 -0.00523373 -3.30115
lowerback 3.56245 1.38009 4.82548
upperback -9.37228 2.50516 1.53609
thorax -11.9738 0.850904 -1.373
lowerneck -6.21114 7.37014 7.22276
upperneck 22.215 8.05068 5.66508
head 8.0002 4.97378 1.3946
rclavicle 1.36167e-014 1.86858e-014
rhumerus -52.6696 48.6509 -113.22
rradius 99.9148
rwrist -23.9378
rhand 6.64802 -53.4218
rfingers 7.12502
rthumb 31.9406 -80.6397
lclavicle 1.36167e-014 1.86858e-014
lhumerus -55.2327 -47.2297 112.119
lradius 91.8188
lwrist 47.9091
lhand -27.4893 6.41342
lfingers 7.12502
lthumb -0.892645 36.3913
rfemur -0.0944315 19.1509 19.3185
rtibia 2.95134
rfoot -13.2786 -20.9607
rtoes 0.727599
lfemur 7.53089 -36.0998 -21.92
ltibia -2.1134
lfoot -12.2891 37.7082
ltoes -8.51109
628
root 0.044009 17.6045 7.84837 5.95708 -0.485412 -3.46021
lowerback 3.6702 1.21592 5.32828
upperback -9.30556 2.33442 1.54573
thorax -11.9619 0.721997 -1.62137
lowerneck -6.03665 7.69499 7.70508
upperneck 22.5888 8.49653 5.37374
head 8.14021 5.20602 1.2734
rclavicle -9.93923e-017 5.56597e-015
rhumerus -53.2694 48.8794 -113.986
rradius 99.8912
rwrist -24.0421
rhand 7.10989 -54.3779
rfingers 7.12502
rthumb 32.3803 -81.5068
lclavicle -9.93923e-017 5.56597e-015
lhumerus -56.7354 -46.9363 113.526
lradius 92.4133
lwrist 47.9528
lhand -27.3571 6.66523
lfingers 7.12502
lthumb -0.765016 36.6436
rfemur -0.226053 19.0102 19.2477
rtibia 2.97832
rfoot -13.1116 -20.3172
rtoes 0.436367
lfemur 7.569 -35.9864 -22.0366
ltibia -1.92494
lfoot -12.0561 38.0277
ltoes -8.59367
629
root 0.0821284 17.5954 7.8195 5.87862 -1.05482 -3.44648
lowerback 3.64633 1.08262 5.66131
upperback -9.22095 2.17264 1.49974
thorax -11.8517 0.61352 -1.83333
lowerneck -5.90997 8.05645 8.20149
upperneck 22.9679 9.00243 5.02661
head 8.29954 5.46285 1.1415
rclavicle -1.0138e-014 -2.10712e-014
rhumerus -53.7862 49.1363 -114.684
rradius 99.8125
rwrist -24.0552
rhand 7.57594 -55.2555
rfingers 7.12502
rthumb 32.8237 -82.2927
lclavicle -1.0138e-014 -2.10712e-014
lhumerus -58.2135 -46.5214 114.866
lradius 93.007
lwrist 47.8659
lhand -27.4339 6.72243
lfingers 7.12502
lthumb -0.839168 36.7005
rfemur -0.494655 18.8182 18.9353
rtibia 3.14606
rfoot -12.9497 -19.5996
rtoes -0.071025
lfemur 7.6063 -35.9949 -22.3464
ltibia -1.74113
lfoot -12.432 38.4325
ltoes -7.38773
630
root 0.120176 17.5874 7.79162 5.8554 -1.6414 -3.3269
lowerback 3.56912 0.936398 5.89816
upperback -9.14748 1.97918 1.4444
thorax -11.7278 0.498867 -1.99699
lowerneck -5.78536 8.46051 8.69485
upperneck 23.3752 9.57971 4.64269
head 8.47748 5.75 1.00812
rclavicle -3.37934e-015 -1.59028e-014
rhumerus -54.2013 49.4839 -115.341
rradius 99.7139
rwrist -24.1092
rhand 7.90381 -56.1563
rfingers 7.12502
rthumb 33.1356 -83.1278
lclavicle -3.37934e-015 -1.59028e-014
lhumerus -59.6087 -45.8683 116.051
lradius 93.5791
lwrist 47.6262
lhand -27.7907 6.71705
lfingers 7.12502
lthumb -1.18373 36.6935
rfemur -0.904691 18.488 18.4561
rtibia 3.39258
rfoot -12.7255 -18.7764
rtoes -0.655817
lfemur 7.60047 -36.1383 -22.7493
ltibia -1.5711
lfoot -12.9672 38.8528
ltoes -5.73591
